# xmcd
#
# Track frame offsets: 
#        150
#        13760
#        30766
#        50467
#        70603
#        88079
#        107926
#        127474
#        140567
#        159733
#        178077
#
# Disc length: 2627 seconds
#
# Revision: 0
# Processed by: cddbd v1.5.2PL0 Copyright (c) Steve Scherf et al.
# Submitted via: ExactAudioCopy v0.99pb5
#
DISCID=990a410b
DTITLE=Wes Hampton - a man like me
DYEAR=2011
DGENRE=Gospel
TTITLE0=One Day
TTITLE1=A Man Like Me
TTITLE2=Find Me
TTITLE3=Because of Love
TTITLE4=Hands
TTITLE5=If Sunday Had Not Come
TTITLE6=Sweet Surrender
TTITLE7=New Day
TTITLE8=Heal the Wound
TTITLE9=Jesus Saves
TTITLE10=It Is Well With My Soul
EXTD=
EXTT0=
EXTT1=
EXTT2=
EXTT3=
EXTT4=
EXTT5=
EXTT6=
EXTT7=
EXTT8=
EXTT9=
EXTT10=
PLAYORDER=
